# xmcd CD database file
#
# Track frame offsets:
#	150
#	15744
#	55270
#	75625
#	109585
#	132867
#	160432
#
# Disc length: 2378 seconds
#
# Revision: 0
# Processed by: cddbd v1.4PL0 Copyright (c) Steve Scherf et al.
# Submitted via: CDex 1.51
#
DISCID=51094807
DTITLE=Eve's Women - Eve's Women
DYEAR=2002
DGENRE=Jazz
TTITLE0=Moroccan Dream
TTITLE1=Laila
TTITLE2=Kingdom ("my soul is thirsty for thee")
TTITLE3=Paradise
TTITLE4="La Roza En Florese"
TTITLE5=Irish Cream
TTITLE6="If I were a rich man"
EXTD=YEAR: 2002
EXTT0=
EXTT1=
EXTT2=
EXTT3=
EXTT4=
EXTT5=
EXTT6=
PLAYORDER=
